<?xml version="1.0" standalone="no"?>
<!DOCTYPE svg PUBLIC "-//W3C//DTD SVG 20010904//EN"
 "http://www.w3.org/TR/2001/REC-SVG-20010904/DTD/svg10.dtd">
<svg version="1.0" xmlns="http://www.w3.org/2000/svg"
 width="416.000000pt" height="419.000000pt" viewBox="0 0 416.000000 419.000000"
 preserveAspectRatio="xMidYMid meet">
<metadata>
Created by potrace 1.16, written by Peter Selinger 2001-2019
</metadata>
<g transform="translate(0.000000,419.000000) scale(0.100000,-0.100000)"
fill="#000000" stroke="none">
<path d="M0 2095 l0 -2095 446 0 446 0 -6 33 c-3 17 -8 82 -12 142 -7 122 2
156 54 217 46 54 62 81 62 107 0 14 17 44 38 70 21 25 42 60 46 76 12 49 112
218 154 258 28 27 56 42 97 53 81 22 213 44 256 44 l36 0 14 81 c19 107 27
112 116 72 57 -26 84 -32 168 -36 125 -6 168 1 275 47 97 41 90 40 90 23 0 -7
10 -17 23 -22 21 -10 22 -15 20 -113 l-2 -102 37 -18 c20 -11 84 -36 142 -56
91 -32 117 -46 183 -102 108 -91 132 -153 157 -404 10 -103 22 -153 42 -177 6
-8 13 -43 13 -76 1 -34 2 -74 3 -89 l2 -28 630 0 630 0 0 2095 0 2095 -2080 0
-2080 0 0 -2095z m2040 880 c160 -2 232 -7 280 -19 91 -23 181 -36 206 -30 36
9 101 -106 129 -226 9 -41 25 -97 35 -125 10 -27 21 -98 25 -157 l7 -107 -28
8 c-22 6 -30 15 -35 41 -4 19 -19 44 -33 56 -22 19 -101 44 -140 44 -7 0 -27
13 -44 29 -54 52 -103 71 -185 71 -99 0 -200 -34 -210 -70 -3 -12 -19 -20 -45
-25 -46 -7 -88 -36 -97 -65 -5 -14 -15 -20 -38 -20 -26 0 -35 6 -46 31 -7 17
-28 37 -46 46 -19 9 -36 24 -38 35 -9 34 -73 52 -187 52 -97 1 -108 -1 -145
-25 -46 -31 -153 -47 -161 -25 -8 20 24 207 46 270 11 33 34 81 51 107 40 63
103 88 249 100 58 5 114 11 125 13 11 2 40 1 65 -2 25 -3 142 -6 260 -7z
m-337 -566 c45 -12 51 -25 43 -82 -10 -65 -16 -70 -61 -47 -22 11 -54 20 -73
20 -29 0 -32 -3 -27 -20 4 -14 1 -22 -10 -26 -24 -10 -41 11 -25 31 10 13 9
15 -6 15 -34 0 -97 -21 -136 -46 -42 -27 -49 -44 -18 -44 11 0 20 4 20 8 0 9
72 52 87 52 5 0 9 -16 9 -35 0 -20 9 -47 21 -62 18 -24 28 -28 65 -27 25 1 60
10 77 19 18 9 35 15 37 13 9 -9 -25 -113 -41 -124 -42 -31 -344 -30 -404 1
-18 9 -33 26 -37 42 -8 29 9 300 19 309 3 3 36 7 72 9 37 2 70 7 73 10 9 9
268 -4 315 -16z m688 -8 c110 -12 166 -27 178 -49 10 -19 -4 -204 -20 -265
-15 -59 -42 -69 -183 -75 -144 -5 -290 12 -315 37 -10 10 -23 46 -30 82 -7 35
-21 102 -31 149 -28 124 -26 125 200 128 63 1 154 -2 201 -7z m-485 -146 c16
-11 26 -37 39 -107 21 -110 36 -143 73 -162 49 -25 183 -38 356 -35 149 4 167
6 193 25 40 30 64 76 72 137 6 52 6 52 44 55 20 2 37 2 37 0 0 -31 -32 -262
-39 -280 -11 -30 -54 -78 -69 -78 -8 0 -9 8 -2 25 5 14 8 25 5 25 -7 0 -86
-82 -102 -107 -8 -12 -22 -23 -29 -23 -8 0 -14 -4 -14 -10 0 -13 -37 -50 -50
-50 -5 0 -9 -9 -7 -21 2 -16 -7 -24 -42 -36 -42 -14 -46 -14 -58 3 -63 91
-144 132 -273 138 -52 3 -104 8 -114 12 -15 6 -14 9 13 20 17 7 31 17 31 23 0
29 -104 5 -128 -30 -12 -17 -26 -19 -131 -19 -114 0 -119 -1 -158 -29 -49 -35
-83 -77 -83 -102 0 -14 -7 -19 -29 -19 -23 0 -41 13 -90 68 -68 76 -117 178
-122 257 l-4 50 55 -5 c30 -3 127 -5 215 -5 228 0 233 3 279 165 28 98 50 130
90 130 12 0 31 -7 42 -15z m975 -38 c26 -20 28 -54 8 -140 -21 -91 -30 -118
-65 -195 -13 -29 -24 -59 -24 -67 0 -8 -4 -15 -9 -15 -5 0 -12 -9 -16 -19 -3
-11 -13 -22 -22 -25 -18 -7 -17 1 12 194 9 58 18 136 20 175 4 58 8 72 27 87
27 21 47 22 69 5z m-906 -546 c102 -11 172 -32 205 -63 18 -17 21 -28 16 -57
-3 -19 -14 -47 -24 -61 -18 -23 -27 -26 -143 -33 -174 -12 -378 0 -408 22 -32
25 -53 116 -35 152 7 15 21 30 31 34 22 9 208 23 243 18 14 -1 66 -7 115 -12z"/>
<path d="M2210 2282 c-34 -3 -100 -28 -100 -38 0 -2 11 -2 25 2 23 6 25 4 25
-33 0 -74 78 -120 150 -88 37 17 54 42 62 89 3 17 6 17 36 -9 42 -36 67 -20
28 18 -39 39 -145 67 -226 59z"/>
</g>
</svg>
